inDegrees=no
num_controls=7
num_derivatives=13
num_iterations=122
num_multipliers=7
num_parameters=0
num_slacks=7
num_states=26
objective=5.385932
objective_accelerations=0.675300
objective_balance=0.133054
objective_effort=0.485188
objective_height=4.050470
objective_ligament=0.041920
solver_duration=1289.693605
status=Solve_Succeeded
success=true
DataType=double
version=3
OpenSimVersion=4.4-2022-07-23-0e9fedc
endheader
time	/jointset/ground_pelvis/pelvis_tilt/value	/jointset/ground_pelvis/pelvis_tx/value	/jointset/ground_pelvis/pelvis_ty/value	/jointset/hip_l/hip_flexion_l/value	/jointset/hip_l/hip_adduction_l/value	/jointset/hip_l/hip_rotation_l/value	/jointset/back/lumbar_extension/value	/jointset/patellofemoral_l/patellar_flexion_l/value	/jointset/knee_l/knee_flexion_l/value	/jointset/knee_l/knee_adduction_l/value	/jointset/knee_l/knee_rotation_l/value	/jointset/ankle_l/ankle_angle_l/value	/jointset/subtalar_l/subtalar_angle_l/value	/jointset/ground_pelvis/pelvis_tilt/speed	/jointset/ground_pelvis/pelvis_tx/speed	/jointset/ground_pelvis/pelvis_ty/speed	/jointset/hip_l/hip_flexion_l/speed	/jointset/hip_l/hip_adduction_l/speed	/jointset/hip_l/hip_rotation_l/speed	/jointset/back/lumbar_extension/speed	/jointset/patellofemoral_l/patellar_flexion_l/speed	/jointset/knee_l/knee_flexion_l/speed	/jointset/knee_l/knee_adduction_l/speed	/jointset/knee_l/knee_rotation_l/speed	/jointset/ankle_l/ankle_angle_l/speed	/jointset/subtalar_l/subtalar_angle_l/speed	/forceset/tau_hip_flexion_l	/forceset/tau_hip_adduction_l	/forceset/tau_hip_rotation_l	/forceset/tau_knee_flexion_l	/forceset/tau_ankle_angle_l	/forceset/tau_subtalar_angle_l	/forceset/tau_lumbar_extension	lambda_cid13_p0	lambda_cid13_p1	lambda_cid13_p2	lambda_cid13_p3	lambda_cid13_p4	lambda_cid13_p5	lambda_cid14_p0	/jointset/ground_pelvis/pelvis_tilt/accel	/jointset/ground_pelvis/pelvis_tx/accel	/jointset/ground_pelvis/pelvis_ty/accel	/jointset/hip_l/hip_flexion_l/accel	/jointset/hip_l/hip_adduction_l/accel	/jointset/hip_l/hip_rotation_l/accel	/jointset/back/lumbar_extension/accel	/jointset/patellofemoral_l/patellar_flexion_l/accel	/jointset/knee_l/knee_flexion_l/accel	/jointset/knee_l/knee_adduction_l/accel	/jointset/knee_l/knee_rotation_l/accel	/jointset/ankle_l/ankle_angle_l/accel	/jointset/subtalar_l/subtalar_angle_l/accel	gamma_cid13_p0	gamma_cid13_p1	gamma_cid13_p2	gamma_cid13_p3	gamma_cid13_p4	gamma_cid13_p5	gamma_cid14_p0
0	-0.1584524127748564	0.05793739249890002	0.8979417969014928	0.3774920279260975	-0.2599609128746659	-0.2588692895996184	-0.0126506700172305	0.03223623128433616	0.03223623128433527	-0.1745328737492261	0.1610723236893817	-0.04231376238535053	-0.01024943939610314	0	0	0	0	0	0	0	0	0	0	0	0	0	0.1565687255143851	-0.09445337720763017	-0.05008952585035609	-0.3144350334752704	0.3329547968708886	-0.03399541217799797	-0.1009574360852077	66.55599507641963	-1.899897601309104	5.623824209876488	-19.83066604267687	-574.5122820882544	-80.99134063235763	-38.65969779625669	-2.936522458033695	-2.11701109323685	-1.245334112713909	15.88724268772021	-0.5772327431897527	5.055305029677784	-7.621574567260207	17.14437867380785	17.14437867380783	3.348204596389278	0.7988710918114593	5.298248486578579	0.5779259387302754	-2.017206276262397e-08	7.327500584844794e-07	-2.480643411558116e-08	3.057221576679478e-08	2.804600873837754e-07	1.200491057666264e-07	7.012745148932517e-08
0.01	-0.1585917513701913	0.05783333177209087	0.8978811690335275	0.3782662380833947	-0.2599889771267183	-0.2586145345367798	-0.01303173056550348	0.03307556708539569	0.03307556708536576	-0.1743677516571191	0.1611044498206726	-0.04205401260915597	-0.01022096439249548	-0.02769667732587948	-0.02066840279090822	-0.01208602080984764	0.1539972513906794	-0.005544091502067989	0.05064903676246729	-0.07560756972306698	0.1670343402640708	0.1670343402640675	0.03289077863575722	0.006406718996923314	0.05174751634823181	0.005716917847030804	0.1498356929918817	-0.09798952919211085	-0.04887944256546418	-0.3074637657342659	0.3231945439122788	-0.02588696531312012	-0.09522651601899328	63.66184946993406	-4.793874478446773	5.947241591117501	-18.82011714759184	-576.2349684815475	-86.18647748557268	-38.68408728267127	-2.660598654511978	-2.020187371875117	-1.184247055621109	15.02923934165561	-0.5328100158731671	5.024442704762098	-7.439667185148656	16.35802468561203	16.35802468561163	3.239592085427284	0.55884736353891	5.082644102327264	0.5717504035894624	-6.45403444980438e-08	8.406830105435251e-07	7.932372280479321e-08	1.022677828653545e-07	-2.654894642461536e-08	9.722418333771423e-08	7.537455496556188e-08
0.02	-0.1590029283957109	0.05752690051740119	0.8977008787593637	0.3805550753499771	-0.2600704448262248	-0.2578623411652706	-0.01415073061307223	0.03556025888563973	0.03556025888563898	-0.1738777062610626	0.1612000981539723	-0.04128285949080283	-0.0101346850712374	-0.05436768603764325	-0.04047410557610515	-0.02393248123972607	0.3029254218579079	-0.01068068949045274	0.09948766173416594	-0.1475878998588859	0.3290711998443565	0.3290711998443545	0.06498466080184871	0.01270444039008896	0.1022806684317373	0.01156086353006143	0.1431026604693187	-0.1015256811765801	-0.04766935928027592	-0.3004924979933226	0.3134342909536685	-0.01777851844823489	-0.0894955959528337	60.91774071439456	-7.703912520879767	6.261567285596771	-18.14417477830889	-575.7496793604749	-91.13591579564367	-38.75582044199605	-2.731388735210585	-1.944471092094571	-1.197422036720068	14.87342650303002	-0.4957340404530982	4.693222671524062	-6.896126649810623	16.14488253705083	16.14488253705174	3.188825302456141	0.7770715710599232	5.05537563363335	0.6033315059302512	-1.089086262334636e-07	9.486159626025707e-07	1.834538797251676e-07	1.739633499639142e-07	-3.335579802330061e-07	7.439926090880206e-08	8.062165844179859e-08
0.03	-0.1596761356884983	0.05702641212772493	0.8974026485171395	0.3843091822547433	-0.2602009372401973	-0.256632413251904	-0.0159715131989493	0.03964106582040792	0.03964106582041513	-0.1730709302195957	0.1613592993109003	-0.04001275914597489	-0.009989150720292611	-0.08009344257676132	-0.05950871549970923	-0.03572868814364088	0.4470909236680597	-0.01533113247946243	0.1461887634135838	-0.2160324660682404	0.4862569711134169	0.4862569711134058	0.09620127519035571	0.01906597939465676	0.1514865293459218	0.01756857220549139	0.1353924867081938	-0.09516355620030707	-0.04623698211062593	-0.2924099501171284	0.3031003442224589	-0.01850458903769657	-0.08328063098148528	57.63264376710259	-6.924164508394999	6.263789349130917	-16.47000053580403	-574.9721285762963	-88.21757888556772	-38.87174623054789	-2.466122714760281	-1.865692331184262	-1.173056110047098	14.06734534642019	-0.436872201558809	4.612188156511333	-6.73819891933964	15.38042587678165	15.38042587677969	3.062869349899553	0.5552511792679209	4.815270347742358	0.6027059038390282	-1.319035419131355e-07	8.912208255241987e-07	2.656414008372108e-07	2.078747532875153e-07	-5.28536638096932e-07	2.10068824953992e-08	7.076003429209059e-08
0.04	-0.1606011912669725	0.05633903036107446	0.8969859889873125	0.3894807908428984	-0.2603753686387466	-0.2549447474736715	-0.01846065690948617	0.04526873075886692	0.04526873075886661	-0.1719570300656597	0.1615800270806802	-0.03825818438651873	-0.009782896211495477	-0.1047373431758059	-0.07785278097095105	-0.04761833876029577	0.5864257585347066	-0.01946848640582726	0.1910352347074304	-0.2812601247912691	0.6384428005803995	0.6384428005803748	0.1264094832929234	0.02500976296373494	0.1991755513573615	0.02370489510050712	0.1276823129470948	-0.08880143122404163	-0.0448046049410523	-0.2843274022409095	0.2927663974912515	-0.0192306596271642	-0.07706566601011575	54.4808541303811	-6.154630740382044	6.252652676874972	-15.10201099772754	-572.2468429895075	-85.06879216776311	-39.02786161257478	-2.51501754719592	-1.806362201622103	-1.216110779268084	13.90729311432905	-0.3931162279241278	4.322296594409814	-6.252745152545488	15.14489417663526	15.14489417663528	2.987144045268289	0.6935204839620004	4.752007853084408	0.629054349847411	-1.544577696328951e-07	8.304168618656738e-07	3.473764964686699e-07	2.410071016879213e-07	-7.212053913022093e-07	-3.301575274242619e-08	6.058688998514663e-08
0.05	-0.1617680867604919	0.05547183655077097	0.89644942138771	0.3960229207120535	-0.2605884178584996	-0.2528194745363188	-0.02158522637280817	0.05239444875970026	0.05239444875969627	-0.1705462329988278	0.1618595274720663	-0.03603377838013866	-0.009514345899109811	-0.1284670732647091	-0.09544908882688785	-0.05974837376866645	0.7211856547629827	-0.02303408541150671	0.2336889007410989	-0.3431191198600845	0.7858680209187688	0.7858680209187514	0.1555696934956838	0.03079768891978435	0.2454712356559161	0.03004990773225338	0.1201580572195337	-0.08556882640154723	-0.04344554843334295	-0.2779255379616595	0.2837789839702332	-0.01697434068181338	-0.07094658254832648	51.87251248166493	-6.673716143927735	6.330686618489475	-14.21326971054276	-569.7298303255769	-84.54041811976367	-39.21915721099722	-2.275742250346722	-1.715682768962042	-1.219574550886558	13.13814394658585	-0.3223561314966168	4.187309141575383	-6.072279482143696	14.41640712723177	14.4164071272329	2.853601999952065	0.5075265818758572	4.533196042344785	0.6437667663697958	-1.598430295421817e-07	6.14258017127555e-07	3.870857876368037e-07	2.434384829943162e-07	-8.186476223555074e-07	-1.025298650257632e-07	3.764101337665379e-08
0.06	-0.1631670378570192	0.05443279612363162	0.8957899285001708	0.4038882107573942	-0.2608339379472313	-0.2502775834318834	-0.02531234634643648	0.06096943319687124	0.0609694331968712	-0.1688492053315384	0.1621941267091098	-0.03335344606595223	-0.009181037051100276	-0.1511484637779886	-0.1122221043381244	-0.07220339634760144	0.8510577937716158	-0.02596266020145662	0.2743588681239673	-0.4017702268526676	0.9282960878488993	0.9282960878488914	0.1836556033853286	0.03602953209381184	0.2903608129186235	0.03665660222526188	0.1126338014919647	-0.08233622157905471	-0.04208649192559521	-0.2715236736824166	0.2747915704492142	-0.01471802173646497	-0.06482749908654363	49.37704758963149	-7.203076911112371	6.399525569811204	-13.59261828903023	-565.5727473220408	-83.81766210039964	-39.43997853471863	-2.305349632071203	-1.641703732682038	-1.281108293380945	12.92974167040046	-0.2657113847782169	3.925556864249784	-5.611167537299021	14.14546349498749	14.14546349498791	2.772283982645184	0.5823039275576161	4.470786445914961	0.6813907220998638	-1.64505385543659e-07	3.915579142387164e-07	4.250255712485869e-07	2.445771920020158e-07	-9.120803156339851e-07	-1.726962500268059e-07	1.415733751335892e-08
